<svg width="16" height="16" viewBox="0 0 16 16" fill="none" xmlns="http://www.w3.org/2000/svg">
<g clip-path="url(#clip0_18_2508)">
<path d="M8.00316 15.63C12.2153 15.63 15.63 12.2153 15.63 8.00316C15.63 3.79098 12.2153 0.376343 8.00316 0.376343C3.79098 0.376343 0.376343 3.79098 0.376343 8.00316C0.376343 12.2153 3.79098 15.63 8.00316 15.63Z" fill="#83C300"/>
<path d="M8.3198 8.89255C8.2939 8.22176 8.47943 7.52581 8.71444 6.83846C8.73934 6.76564 8.78525 6.73679 8.85186 6.72393C8.99932 6.69539 9.14251 6.65142 9.284 6.60181C9.8934 6.388 10.4044 6.02685 10.8436 5.55852C10.8656 5.53506 10.887 5.5111 10.9088 5.48752C11.0049 5.38353 11.0062 5.38221 11.1048 5.48018C11.6432 6.01581 12.0258 6.64616 12.2371 7.37597C12.8315 9.42938 11.8819 11.5944 9.97048 12.5514C9.91792 12.5777 9.86392 12.6013 9.80992 12.6248C9.68761 12.6779 9.68887 12.6763 9.59723 12.5709C8.90103 11.7708 8.51072 10.8378 8.3787 9.78965C8.34382 9.51286 8.32018 9.2362 8.3198 8.89255Z" fill="#FEFEFE"/>
<path d="M7.69609 8.86032C7.67232 9.76556 7.54524 10.5538 7.22267 11.3025C7.01952 11.7739 6.72925 12.19 6.40072 12.581C6.31793 12.6795 6.31461 12.6795 6.19876 12.6263C5.19504 12.1656 4.45726 11.4352 3.99194 10.4342C3.68361 9.77077 3.55484 9.06905 3.60314 8.34049C3.67652 7.23303 4.10973 6.28344 4.89066 5.49354C4.89819 5.48595 4.90578 5.47836 4.91362 5.47103C5.004 5.38585 5.00638 5.38378 5.08798 5.47498C5.33184 5.74769 5.60241 5.9896 5.90686 6.193C6.27566 6.43937 6.67537 6.61712 7.1084 6.71157C7.22399 6.73679 7.27975 6.7891 7.31481 6.89854C7.46038 7.35252 7.60383 7.80686 7.65356 8.2836C7.67689 8.50695 7.68693 8.73168 7.69609 8.86032Z" fill="#FEFEFE"/>
<path d="M8.00739 5.98677C7.09173 5.9874 6.35407 5.6292 5.75102 4.97421C5.66515 4.88101 5.66609 4.87599 5.7741 4.81132C6.00428 4.67365 6.2467 4.56145 6.49864 4.46981C6.54888 4.45156 6.60031 4.43632 6.64999 4.41662C6.72814 4.38564 6.73058 4.37592 6.68241 4.30122C6.66504 4.27431 6.64447 4.24947 6.62534 4.2237C6.42137 3.94867 6.21722 3.67383 6.01375 3.39842C5.98202 3.35546 5.94815 3.31281 5.92481 3.26526C5.85883 3.13098 5.90029 2.97757 6.01965 2.89528C6.1365 2.81474 6.27969 2.82666 6.38562 2.9309C6.42727 2.97186 6.46189 3.02034 6.49695 3.06751C6.76194 3.42382 7.02913 3.77857 7.28873 4.13877C7.3507 4.22476 7.41455 4.25198 7.51748 4.23762C7.84212 4.19221 8.16845 4.19146 8.49303 4.23793C8.59771 4.25292 8.65974 4.22075 8.72083 4.13633C8.98746 3.76797 9.26079 3.4045 9.53218 3.0396C9.56085 3.00109 9.58907 2.96113 9.62357 2.92814C9.73358 2.82296 9.88687 2.81568 10.0036 2.9065C10.115 2.99318 10.1479 3.13644 10.0823 3.26664C10.0609 3.30923 10.0312 3.34806 10.0026 3.38669C9.79912 3.66203 9.5949 3.93688 9.39094 4.2119C9.37181 4.23768 9.35199 4.26302 9.33386 4.28949C9.27026 4.3825 9.27076 4.38476 9.37005 4.42171C9.41515 4.43851 9.46125 4.4525 9.50653 4.46881C9.75873 4.55988 10.0007 4.67303 10.2315 4.80963C10.3444 4.87643 10.3453 4.87969 10.2621 4.97013C9.65079 5.63428 8.90322 5.99448 8.00739 5.98677Z" fill="#FEFEFE"/>
</g>
<defs>
<clipPath id="clip0_18_2508">
<rect width="16" height="16" fill="white"/>
</clipPath>
</defs>
</svg>
