<svg width="16" height="16" viewBox="0 0 16 16" fill="none" xmlns="http://www.w3.org/2000/svg">
<g clip-path="url(#clip0_18_2519)">
<path d="M8.00316 15.63C12.2153 15.63 15.63 12.2153 15.63 8.00316C15.63 3.79098 12.2153 0.376343 8.00316 0.376343C3.79098 0.376343 0.376343 3.79098 0.376343 8.00316C0.376343 12.2153 3.79098 15.63 8.00316 15.63Z" fill="#006FC9"/>
<path d="M7.94578 11.2617C8.88176 11.2716 9.5841 10.8685 10.0043 10.0296C10.526 8.98792 10.115 7.71488 9.09463 7.14299C9.07073 7.12963 9.04753 7.1137 9.02194 7.10486C8.92936 7.07293 8.90032 7.0146 8.91506 6.91563C8.93118 6.80788 8.93087 6.69705 8.93037 6.58767C8.92892 6.28918 8.80863 6.03529 8.62774 5.8056C8.61808 5.79337 8.60485 5.7839 8.59331 5.77318C8.58152 5.78961 8.59155 5.80429 8.5987 5.81777C8.74785 6.09983 8.76259 6.40452 8.75356 6.71417C8.74973 6.84375 8.71003 6.96098 8.6532 7.07507C8.5775 7.22723 8.46661 7.31203 8.28924 7.34263C7.2736 7.51762 6.27422 7.76687 5.27514 8.01769C4.57919 8.19243 3.8798 8.35375 3.18197 8.52096C3.15531 8.52736 3.12872 8.53495 3.10162 8.53796C3.08732 8.53953 3.06305 8.53645 3.05935 8.52818C3.05402 8.51645 3.06042 8.4965 3.06725 8.48277C3.0793 8.4583 3.09516 8.43566 3.1099 8.41258C3.65419 7.56247 4.14216 6.68005 4.61206 5.78742C4.66995 5.6774 4.74591 5.59386 4.84764 5.52192C5.6536 4.95235 6.4499 4.37006 7.19846 3.72498C7.81538 3.19336 8.37203 2.60542 8.87204 1.96316C8.89562 1.93286 8.91901 1.90251 8.94347 1.87297C8.94993 1.86519 8.96072 1.85446 8.96825 1.8554C8.99089 1.85823 8.9855 1.87729 8.9828 1.8921C8.97496 1.93519 8.96605 1.97809 8.95784 2.02111C8.83284 2.67341 8.58628 3.28029 8.27444 3.86353C8.15752 4.08217 8.16135 4.08211 8.41173 4.08863C10.4218 4.14094 12.1749 5.47733 12.7519 7.40592C13.3688 9.46823 12.5028 11.6537 10.6589 12.7464C10.3798 12.9118 10.0863 13.0449 9.78017 13.1521C9.69048 13.1835 9.61452 13.1763 9.52885 13.1383C9.1529 12.9717 8.83133 12.726 8.5282 12.4549C8.18763 12.1503 7.88663 11.8101 7.64008 11.4237C7.61944 11.3914 7.59956 11.3586 7.58012 11.3256C7.55503 11.2829 7.54951 11.2571 7.61738 11.2603C7.72645 11.2655 7.83621 11.2617 7.94578 11.2617ZM6.39765 5.9064C6.38849 5.8194 6.3799 5.73235 6.36986 5.64548C6.36736 5.6239 6.36064 5.60277 6.35544 5.58157C6.34534 5.54055 6.32132 5.52832 6.28394 5.54952C6.26023 5.563 6.23715 5.57787 6.21482 5.59355C5.69857 5.95488 5.27357 6.40791 4.89706 6.90898C4.8393 6.98582 4.85121 7.0062 4.95476 7.00877C5.38772 7.01937 5.77371 6.89192 6.10305 6.60698C6.31593 6.42277 6.40856 6.18619 6.39765 5.9064Z" fill="#FEFEFE"/>
<path d="M7.72693 13.2471C7.29115 13.1983 6.8587 13.1318 6.43721 13.0063C5.76121 12.8052 5.19014 12.428 4.67038 11.9614C3.9341 11.3005 3.47066 10.4768 3.20629 9.53238C3.17694 9.42763 3.17801 9.42513 3.29009 9.4144C3.99431 9.34679 4.6912 9.2374 5.37617 9.05702C5.77921 8.95083 6.1731 8.81793 6.56002 8.66364C6.61089 8.64338 6.66207 8.62387 6.71369 8.60556C6.72265 8.60236 6.73614 8.60393 6.74448 8.60869C6.76336 8.61948 6.75577 8.63629 6.74768 8.65003C6.7283 8.68308 6.70716 8.71513 6.68747 8.74793C6.62537 8.85117 6.56178 8.95359 6.50194 9.05815C6.19768 9.58939 6.12248 10.1568 6.22227 10.7566C6.36007 11.5854 6.74856 12.2694 7.38404 12.8154C7.54605 12.9546 7.71031 13.0913 7.87257 13.2302C7.88562 13.2414 7.91528 13.2451 7.90387 13.2719C7.90224 13.2757 7.87339 13.2679 7.85708 13.2656C7.81368 13.2594 7.77027 13.2533 7.72693 13.2471Z" fill="#FEFEFE"/>
</g>
<defs>
<clipPath id="clip0_18_2519">
<rect width="16" height="16" fill="white"/>
</clipPath>
</defs>
</svg>
