<svg width="16" height="16" viewBox="0 0 16 16" fill="none" xmlns="http://www.w3.org/2000/svg">
<g clip-path="url(#clip0_18_2517)">
<path d="M8.00316 15.63C12.2153 15.63 15.63 12.2153 15.63 8.00316C15.63 3.79098 12.2153 0.376343 8.00316 0.376343C3.79098 0.376343 0.376343 3.79098 0.376343 8.00316C0.376343 12.2153 3.79098 15.63 8.00316 15.63Z" fill="#FB89EB"/>
<path fill-rule="evenodd" clip-rule="evenodd" d="M4.63915 11.2952L6.44168 10.7726L7.99853 13.6192C8.0006 13.6229 8.00587 13.6229 8.00787 13.6192L9.56472 10.7726L11.3672 11.2952C11.3713 11.2964 11.375 11.2927 11.3738 11.2886L10.8511 9.52176L13.6192 8.00781C13.6229 8.00581 13.6229 8.00047 13.6192 7.99847L10.8283 6.47204L11.3738 4.62806C11.375 4.62404 11.3713 4.62028 11.3672 4.62141L9.52245 5.15635L8.00787 2.38705C8.00587 2.38335 8.00054 2.38335 7.99853 2.38705L6.48395 5.15635L4.63915 4.62141C4.63514 4.62022 4.63138 4.62398 4.63257 4.62806L5.17811 6.47204L2.38717 7.99847C2.38347 8.00047 2.38347 8.00581 2.38717 8.00781L5.15528 9.52176L4.63257 11.2886C4.63138 11.2927 4.63514 11.2964 4.63915 11.2952ZM6.03788 8.02262L7.31487 8.72101L8.01327 9.998C8.01527 10.0017 8.02061 10.0017 8.02261 9.998L8.72101 8.72101L9.998 8.02262C10.0017 8.02061 10.0017 8.01528 9.998 8.01327L8.72101 7.31488L8.02261 6.03789C8.02061 6.03419 8.01527 6.03419 8.01327 6.03789L7.31487 7.31488L6.03788 8.01327C6.03425 8.01528 6.03425 8.02055 6.03788 8.02262Z" fill="white"/>
</g>
<defs>
<clipPath id="clip0_18_2517">
<rect width="16" height="16" fill="white"/>
</clipPath>
</defs>
</svg>
