<svg width="16" height="16" viewBox="0 0 16 16" fill="none" xmlns="http://www.w3.org/2000/svg">
<g clip-path="url(#clip0_18_2515)">
<path d="M8.00316 15.63C12.2153 15.63 15.63 12.2153 15.63 8.00316C15.63 3.79098 12.2153 0.376343 8.00316 0.376343C3.79098 0.376343 0.376343 3.79098 0.376343 8.00316C0.376343 12.2153 3.79098 15.63 8.00316 15.63Z" fill="#E0306A"/>
<path d="M8.75173 11.5545C7.55051 11.5545 6.34928 11.5516 5.14806 11.5569C4.90884 11.5579 4.79958 11.4933 4.79996 11.2137C4.80285 9.11654 4.79833 7.01942 4.79613 4.92223C4.79613 4.89219 4.79526 4.86208 4.79689 4.83216C4.80529 4.67643 4.88633 4.59332 5.04187 4.58787C5.15684 4.58385 5.27206 4.58667 5.38721 4.58661C5.57738 4.58655 5.76799 4.59458 5.95772 4.58479C6.25859 4.56924 6.31717 4.69449 6.31397 4.93327C6.30638 5.49876 6.31152 6.06437 6.31152 6.62998C6.31152 6.75009 6.30983 6.87027 6.31228 6.99031C6.31642 7.19252 6.38591 7.26158 6.58361 7.26428C6.62362 7.26484 6.66376 7.26578 6.70372 7.26359C6.84603 7.25581 6.92318 7.18092 6.92688 7.03572C6.93133 6.86067 6.92838 6.68537 6.92844 6.51019C6.92851 5.99469 6.92844 5.47913 6.92851 4.96363C6.92851 4.92361 6.92769 4.88353 6.92907 4.84352C6.93528 4.67166 7.01675 4.59069 7.19243 4.5873C7.33751 4.58448 7.4827 4.58655 7.62784 4.58655C7.80804 4.58655 7.98823 4.58511 8.16837 4.58711C8.36167 4.58925 8.44082 4.66683 8.44133 4.86214C8.44308 5.54285 8.44201 6.22356 8.44245 6.9042C8.44252 6.9592 8.44026 7.0149 8.4481 7.06903C8.46503 7.18669 8.54055 7.25481 8.66053 7.26265C8.72532 7.26685 8.7908 7.26697 8.85559 7.26277C8.98223 7.25468 9.05686 7.18268 9.07104 7.05598C9.07656 7.00643 9.07486 6.95601 9.07493 6.90602C9.07512 6.25535 9.07505 5.60469 9.07512 4.95403C9.07512 4.91401 9.07443 4.87393 9.07549 4.83392C9.08051 4.64582 9.1628 4.56184 9.35441 4.56021C9.66971 4.55751 9.98506 4.55726 10.3004 4.56033C10.4903 4.56221 10.5729 4.64689 10.5733 4.83862C10.5749 5.52435 10.5739 6.21001 10.5742 6.89573C10.5742 6.95074 10.5718 7.00637 10.5789 7.06062C10.5956 7.1882 10.6701 7.25625 10.7985 7.26308C10.8634 7.26653 10.9289 7.26697 10.9937 7.26258C11.1126 7.25449 11.187 7.18506 11.203 7.06621C11.2103 7.01201 11.2082 6.95632 11.2082 6.90131C11.2086 6.26069 11.2084 5.62 11.2085 4.97937C11.2085 4.93433 11.2076 4.88924 11.2091 4.84427C11.215 4.6674 11.291 4.58893 11.4688 4.58755C11.7991 4.58498 12.1295 4.58479 12.4598 4.58768C12.6341 4.58918 12.7146 4.67229 12.7222 4.84602C12.7235 4.876 12.7227 4.90605 12.7227 4.93609C12.7207 7.01822 12.7187 9.10036 12.7166 11.1825C12.7165 11.2325 12.7187 11.283 12.7134 11.3325C12.6992 11.4667 12.6242 11.5405 12.4906 11.5524C12.4409 11.5569 12.3906 11.5544 12.3405 11.5544C11.1441 11.5545 9.94793 11.5545 8.75173 11.5545Z" fill="#FEFEFE"/>
<path d="M4.29795 9.09857C4.29795 9.79364 4.29802 10.4887 4.29777 11.1838C4.29777 11.2387 4.29921 11.2942 4.29306 11.3486C4.27863 11.476 4.20971 11.5452 4.08188 11.5641C4.04745 11.5691 4.01188 11.5663 3.9772 11.5701C3.79117 11.5905 3.67702 11.52 3.5909 11.3423C3.35539 10.8566 3.09936 10.3808 2.84861 9.90259C2.80332 9.81616 2.77698 9.72973 2.77748 9.63138C2.77924 9.27638 2.77836 8.92132 2.77541 8.56626C2.7746 8.46848 2.79642 8.37998 2.84152 8.2933C3.10438 7.78759 3.36712 7.28181 3.62471 6.77346C3.67934 6.66564 3.75348 6.61415 3.87246 6.62023C3.94227 6.62381 4.01289 6.61747 4.08219 6.6245C4.21359 6.6378 4.28905 6.71657 4.30197 6.84847C4.30636 6.89307 4.30429 6.93841 4.30429 6.98339C4.30441 7.68849 4.30435 8.39353 4.30435 9.09863C4.30222 9.09857 4.30009 9.09857 4.29795 9.09857Z" fill="#FEFEFE"/>
</g>
<defs>
<clipPath id="clip0_18_2515">
<rect width="16" height="16" fill="white"/>
</clipPath>
</defs>
</svg>
