<svg width="16" height="16" viewBox="0 0 16 16" fill="none" xmlns="http://www.w3.org/2000/svg">
<g clip-path="url(#clip0_18_2514)">
<path d="M8.00316 15.63C12.2153 15.63 15.63 12.2153 15.63 8.00316C15.63 3.79098 12.2153 0.376343 8.00316 0.376343C3.79098 0.376343 0.376343 3.79098 0.376343 8.00316C0.376343 12.2153 3.79098 15.63 8.00316 15.63Z" fill="#FF9741"/>
<path d="M11.4491 11.6378C11.4474 11.6935 11.4098 11.7315 11.3811 11.7738C10.9191 12.455 10.2953 12.9126 9.49953 13.1307C8.96113 13.2782 8.41396 13.381 7.85418 13.3407C6.4404 13.239 5.26915 12.6779 4.45686 11.4796C4.05921 10.893 3.86346 10.232 3.8114 9.52768C3.74059 8.5705 3.94337 7.66042 4.28971 6.77556C4.32521 6.68493 4.36247 6.59493 4.40123 6.50568C4.41139 6.48228 4.41578 6.44183 4.45404 6.45255C4.47643 6.45882 4.47122 6.49069 4.47135 6.51245C4.47173 6.56971 4.47053 6.62704 4.47079 6.6843C4.47336 7.36877 4.53382 8.04565 4.73929 8.70309C4.80772 8.92198 4.88894 9.13611 4.98729 9.34347C4.99877 9.36774 5.00981 9.40236 5.04474 9.39113C5.05453 9.388 5.0586 9.3493 5.05597 9.32804C5.02135 9.04335 5.00924 8.75709 5.00284 8.4709C4.97788 7.35686 5.2615 6.35025 6.04871 5.52542C6.26603 5.29774 6.49315 5.07954 6.75036 4.89445C6.95508 4.74712 7.1477 4.58467 7.32143 4.4004C7.65065 4.05123 7.81341 3.63433 7.83518 3.15835C7.8486 2.86444 7.81028 2.57548 7.75477 2.28804C7.74825 2.25435 7.74147 2.22067 7.73696 2.18668C7.73558 2.17633 7.74047 2.1562 7.74423 2.15576C7.75916 2.154 7.77553 2.15613 7.78983 2.16115C7.79986 2.16473 7.80764 2.17514 7.81605 2.18292C8.24593 2.58345 8.63467 3.01697 8.90569 3.54458C9.1471 4.01461 9.24959 4.51298 9.20944 5.0404C9.19665 5.20862 9.19828 5.21062 9.031 5.26074C8.53545 5.4092 8.18716 5.89484 8.21024 6.43926C8.23169 6.94528 8.57296 7.39054 9.06337 7.52357C9.68173 7.69134 10.3124 7.31264 10.4804 6.67421C10.5511 6.40583 10.5253 6.14052 10.462 5.87577C10.426 5.72518 10.377 5.5786 10.3233 5.43347C10.3122 5.40355 10.2798 5.36416 10.3141 5.34058C10.3427 5.32095 10.3769 5.3557 10.4056 5.37276C11.0741 5.76984 11.6051 6.29951 11.9021 7.02506C12.4208 8.29189 12.2858 9.49845 11.4696 10.6001C10.9382 11.3173 10.2013 11.669 9.30177 11.6573C9.19333 11.6559 9.08501 11.6397 8.97675 11.629C8.94897 11.6262 8.91347 11.6279 8.90174 11.5976C8.88888 11.5641 8.92325 11.5504 8.94395 11.5334C8.97932 11.5042 9.01752 11.4783 9.0512 11.4474C9.5312 11.0068 9.71334 10.4611 9.56908 9.82986C9.4274 9.20993 9.03546 8.79968 8.41647 8.63121C7.61183 8.41219 6.76378 8.91295 6.53103 9.74042C6.36432 10.333 6.50117 10.8679 6.89004 11.3313C7.36571 11.8983 7.98596 12.1996 8.72198 12.268C9.43467 12.3342 10.112 12.1853 10.7709 11.9316C11.0002 11.8433 11.2218 11.7346 11.4469 11.6351L11.4491 11.6378Z" fill="#FEFEFE"/>
</g>
<defs>
<clipPath id="clip0_18_2514">
<rect width="16" height="16" fill="white"/>
</clipPath>
</defs>
</svg>
