<svg width="16" height="16" viewBox="0 0 16 16" fill="none" xmlns="http://www.w3.org/2000/svg">
<g clip-path="url(#clip0_18_2512)">
<path d="M8.00316 15.63C12.2153 15.63 15.63 12.2153 15.63 8.00316C15.63 3.79098 12.2153 0.376343 8.00316 0.376343C3.79098 0.376343 0.376343 3.79098 0.376343 8.00316C0.376343 12.2153 3.79098 15.63 8.00316 15.63Z" fill="#89AAE3"/>
<path d="M11.8527 7.6243C11.8561 7.68163 11.8211 7.72472 11.7974 7.77176C11.3979 8.56649 10.3744 9.25961 9.39083 9.25754C9.18273 9.25711 8.97487 9.25642 8.76708 9.24431C8.74732 9.24318 8.71307 9.24901 8.70944 9.25968C8.6984 9.29235 8.73032 9.30446 8.75416 9.31167C8.9839 9.38123 9.21647 9.43899 9.45418 9.47493C9.80046 9.52731 10.1454 9.52084 10.4884 9.45053C10.8419 9.37809 11.1436 9.20235 11.4225 8.98019C11.4643 8.94689 11.4948 8.89007 11.5608 8.8932C11.5369 8.94037 11.5144 8.98822 11.4891 9.03451C11.1434 9.6656 10.5891 9.98008 9.8958 10.0833C9.70538 10.1116 9.51345 10.1169 9.32134 10.1188C9.27869 10.1193 9.23598 10.1196 9.19345 10.1225C9.1794 10.1235 9.15701 10.1259 9.1624 10.1483C9.16554 10.1613 9.17777 10.1767 9.18988 10.182C9.22381 10.1972 9.2595 10.2088 9.29512 10.2197C9.37158 10.243 9.44885 10.2636 9.52499 10.2878C9.60647 10.3136 9.61054 10.3189 9.57373 10.4006C9.43925 10.6991 9.26539 10.9733 9.05158 11.2212C8.50164 11.8589 7.81247 12.2617 6.98312 12.4033C5.04211 12.7348 3.2816 11.4554 2.93187 9.61022C2.57813 7.74391 3.73614 5.97318 5.58301 5.53358C5.8539 5.4691 6.12924 5.44251 6.40778 5.44326C6.95182 5.44476 7.49623 5.45524 8.03996 5.44113C9.00836 5.41598 9.96253 5.28527 10.8917 5.00083C11.1676 4.91634 11.4337 4.80715 11.6855 4.66465C12.1066 4.42643 12.4429 4.09571 12.7262 3.70841C12.8458 3.54496 12.9564 3.37486 13.0716 3.20815C13.0828 3.19191 13.0931 3.1665 13.1191 3.17623C13.1434 3.18532 13.1377 3.21129 13.137 3.23104C13.1246 3.57795 13.0923 3.92348 13.0245 4.26367C12.892 4.92801 12.6562 5.55772 12.3109 6.1387C11.7808 7.03059 11.0072 7.61859 10.0046 7.89663C9.74658 7.9682 9.47902 7.99021 9.21327 8.00282C8.8192 8.02157 8.424 8.02684 8.03318 7.9517C8.01236 7.94769 7.99091 7.94625 7.96971 7.94487C7.95485 7.94393 7.93754 7.94474 7.93578 7.96349C7.93503 7.9714 7.9445 7.98338 7.95253 7.98821C7.97059 7.99906 7.99041 8.00715 8.00991 8.01536C8.62809 8.27565 9.26715 8.42154 9.9424 8.36315C10.3695 8.32621 10.7862 8.24172 11.1845 8.07834C11.414 7.98413 11.6215 7.85656 11.7918 7.67304C11.8093 7.65416 11.8332 7.64111 11.8541 7.62531L11.8527 7.6243Z" fill="#FEFEFE"/>
</g>
<defs>
<clipPath id="clip0_18_2512">
<rect width="16" height="16" fill="white"/>
</clipPath>
</defs>
</svg>
