<svg width="16" height="16" viewBox="0 0 16 16" fill="none" xmlns="http://www.w3.org/2000/svg">
<g clip-path="url(#clip0_18_2511)">
<path d="M8.00316 15.63C12.2153 15.63 15.63 12.2153 15.63 8.00316C15.63 3.79098 12.2153 0.376343 8.00316 0.376343C3.79098 0.376343 0.376343 3.79098 0.376343 8.00316C0.376343 12.2153 3.79098 15.63 8.00316 15.63Z" fill="#4C6AB2"/>
<path d="M12.0845 12.2738C12.029 12.2434 11.9741 12.212 11.9191 12.1806C11.8968 12.168 11.8743 12.1557 11.8522 12.1429C11.7005 12.055 11.5739 11.9375 11.4642 11.8024C11.3121 11.6155 11.2862 11.4119 11.3948 11.1939C11.4263 11.1308 11.477 11.0833 11.522 11.0309C12.6949 9.66342 13.0572 8.10757 12.5275 6.38464C11.8611 4.21677 9.70122 2.76272 7.30185 3.03474C6.2706 3.15165 5.35055 3.54993 4.59107 4.25942C3.23191 5.52913 2.73636 7.08717 3.11055 8.91498C3.57211 10.668 4.63942 11.7289 6.31544 12.4172C6.77869 12.5762 7.32844 12.705 7.81114 12.7831C8.17968 12.8427 8.50671 12.8584 8.87826 12.861C9.06373 12.8624 9.26004 12.8605 9.4785 12.8592C9.87671 12.8632 10.0326 12.8469 10.3077 12.8219C10.9082 12.7672 11.479 12.5944 12.0305 12.3545C12.0487 12.3466 12.0666 12.3383 12.0847 12.3304C12.1285 12.3113 12.1209 12.2939 12.0845 12.2738ZM7.22125 7.35468C7.13626 7.89589 6.6865 8.282 6.13901 8.28049C5.67732 8.27924 5.27303 7.99392 5.11792 7.55996C4.96375 7.12851 5.09678 6.64449 5.44977 6.35397C5.47643 6.33202 5.50377 6.31044 5.53294 6.29219C5.59535 6.25312 5.60695 6.25732 5.61548 6.33008C5.63292 6.47872 5.67036 6.62091 5.74036 6.75369C5.99751 7.2414 6.5778 7.45898 7.0975 7.25169C7.25443 7.1891 7.24088 7.22949 7.22125 7.35468ZM8.53029 7.40354C8.52364 7.36973 8.51818 7.33536 8.51618 7.30099C8.51097 7.21299 8.52201 7.20296 8.60405 7.23802C8.84483 7.34094 9.09132 7.35831 9.34246 7.28882C9.76162 7.17285 10.0702 6.80669 10.1206 6.3741C10.1247 6.33848 10.1039 6.28517 10.1537 6.27212C10.1931 6.26177 10.2244 6.30078 10.2556 6.32387C10.6235 6.59639 10.7789 7.08918 10.6361 7.52779C10.4875 7.98351 10.0748 8.28169 9.59415 8.28049C9.07282 8.27918 8.63064 7.9149 8.53029 7.40354Z" fill="#FEFEFE"/>
</g>
<defs>
<clipPath id="clip0_18_2511">
<rect width="16" height="16" fill="white"/>
</clipPath>
</defs>
</svg>
