<svg width="16" height="16" viewBox="0 0 16 16" fill="none" xmlns="http://www.w3.org/2000/svg">
<g clip-path="url(#clip0_18_2509)">
<path d="M8.00316 15.63C12.2153 15.63 15.63 12.2153 15.63 8.00316C15.63 3.79098 12.2153 0.376343 8.00316 0.376343C3.79098 0.376343 0.376343 3.79098 0.376343 8.00316C0.376343 12.2153 3.79098 15.63 8.00316 15.63Z" fill="#38BF4B"/>
<path d="M8.54948 10.2684C8.15314 10.2684 7.75688 10.2684 7.36055 10.2684C7.32354 10.2684 7.28654 10.2684 7.24959 10.2678C7.2033 10.2671 7.17427 10.2546 7.20726 10.2023C7.22413 10.1755 7.24069 10.1485 7.25743 10.1216C7.58697 9.59245 7.91788 9.06409 8.24484 8.53335C8.29847 8.44635 8.35674 8.3995 8.4665 8.38815C9.11785 8.32079 9.76813 8.24333 10.4187 8.16882C10.4553 8.16461 10.4927 8.16016 10.5274 8.14875C10.6071 8.1224 10.6518 8.06602 10.6502 8.00179C10.6487 7.93832 10.6023 7.87911 10.5252 7.8549C10.4751 7.83916 10.4222 7.83063 10.37 7.82429C9.91384 7.76885 9.45748 7.71466 9.00119 7.66009C8.76806 7.63218 8.81667 7.62039 8.90567 7.47814C9.34283 6.77949 9.78068 6.08123 10.2179 5.38265C10.2487 5.33341 10.2782 5.2833 10.3062 5.23249C10.3294 5.19041 10.344 5.14475 10.3417 5.09601C10.3358 4.97534 10.2382 4.91808 10.1309 4.97321C10.064 5.00758 10.0144 5.0634 9.96357 5.11728C9.39438 5.72077 8.82513 6.32414 8.25569 6.92745C8.09431 7.09843 8.11438 7.09397 8.03046 6.88198C7.86532 6.46457 7.70124 6.04673 7.53597 5.62939C7.51659 5.5804 7.49709 5.5306 7.47018 5.48563C7.42389 5.40811 7.34888 5.37123 7.28766 5.38817C7.22482 5.40554 7.17972 5.47623 7.17953 5.56435C7.17947 5.6011 7.18574 5.63804 7.19101 5.67461C7.28202 6.30702 7.37215 6.93956 7.46566 7.57159C7.48304 7.68894 7.46121 7.77763 7.37271 7.8687C6.94559 8.30824 6.52705 8.75607 6.10551 9.20101C6.08368 9.22403 6.06273 9.24792 6.03984 9.26981C5.98063 9.32639 5.97285 9.32626 5.95159 9.24686C5.83688 8.81841 5.7236 8.38959 5.61127 7.96052C5.50966 7.57234 5.40994 7.18367 5.30933 6.79524C5.29071 6.7233 5.27107 6.65223 5.21105 6.6008C5.12029 6.52297 5.01405 6.54812 4.96838 6.65945C4.94537 6.71552 4.95202 6.77354 4.9576 6.83155C4.99673 7.23635 5.03587 7.64109 5.07457 8.04595C5.12174 8.54012 5.16859 9.03436 5.21519 9.5286C5.22955 9.68107 5.2394 9.83398 5.25765 9.98595C5.26593 10.0549 5.25088 10.1058 5.20208 10.1567C4.8987 10.4734 4.59865 10.7932 4.29633 11.1108C4.21837 11.1928 4.21448 11.1926 4.14016 11.1072C3.70187 10.6035 3.39949 10.0268 3.24997 9.37713C2.95913 8.11343 3.15238 6.93197 3.88903 5.85374C4.21906 5.3706 4.65171 4.99848 5.1514 4.69429C6.03677 4.15527 6.99551 3.81056 7.99848 3.57228C8.76505 3.39014 9.53808 3.2467 10.3231 3.17714C10.7494 3.13938 11.1773 3.12301 11.6055 3.12979C11.7226 3.13167 11.7245 3.13223 11.7549 3.24676C11.8685 3.67583 11.9632 4.10917 12.0328 4.54759C12.1984 5.58893 12.2558 6.63749 12.2273 7.69057C12.2098 8.33572 12.156 8.97747 11.9783 9.60229C11.8165 10.1712 11.5692 10.7032 11.2309 11.1855C10.6814 11.9689 9.9223 12.4689 9.00508 12.7172C7.97408 12.9963 6.96503 12.9127 5.98985 12.4681C5.95623 12.4528 5.92318 12.4363 5.8905 12.4191C5.86159 12.4038 5.85864 12.3787 5.87244 12.3524C5.88712 12.3244 5.90474 12.298 5.92142 12.2711C6.13053 11.9346 6.34203 11.5996 6.54725 11.2608C6.59855 11.1761 6.65952 11.138 6.75887 11.123C7.50022 11.0113 8.24058 10.8927 8.98124 10.776C9.25772 10.7325 9.53412 10.689 9.81035 10.644C9.86222 10.6356 9.91509 10.6255 9.96376 10.6066C10.0415 10.5762 10.0891 10.5041 10.0834 10.4369C10.0767 10.3583 10.0243 10.3171 9.95761 10.2886C9.89721 10.2628 9.83343 10.2669 9.77014 10.2669C9.36327 10.2668 8.95641 10.2668 8.54954 10.2668C8.54948 10.2671 8.54948 10.2678 8.54948 10.2684Z" fill="#FEFEFE"/>
</g>
<defs>
<clipPath id="clip0_18_2509">
<rect width="16" height="16" fill="white"/>
</clipPath>
</defs>
</svg>
