<svg width="16" height="16" viewBox="0 0 16 16" fill="none" xmlns="http://www.w3.org/2000/svg">
<g clip-path="url(#clip0_18_2507)">
<path d="M8.00316 15.6298C12.2153 15.6298 15.63 12.2152 15.63 8.00303C15.63 3.79086 12.2153 0.376221 8.00316 0.376221C3.79098 0.376221 0.376343 3.79086 0.376343 8.00303C0.376343 12.2152 3.79098 15.6298 8.00316 15.6298Z" fill="#E87236"/>
<path fill-rule="evenodd" clip-rule="evenodd" d="M5.20902 10.9043C5.20632 10.9043 5.20444 10.9017 5.20532 10.8991L7.7322 4.44923C7.73276 4.44766 7.73421 4.44666 7.7359 4.44666H10.9351C10.9367 4.44666 10.9382 4.44772 10.9388 4.44929L13.4281 10.8992C13.429 10.9017 13.4271 10.9043 13.4244 10.9043H5.20902ZM2.21775 10.9323C2.21505 10.9323 2.21317 10.9296 2.21411 10.927L4.15845 5.90353C4.15901 5.90202 4.16046 5.90102 4.16209 5.90102H5.79702C5.79972 5.90102 5.8016 5.90372 5.80066 5.90622L3.91848 10.9297C3.91791 10.9312 3.91647 10.9323 3.91484 10.9323H2.21775Z" fill="white"/>
</g>
<defs>
<clipPath id="clip0_18_2507">
<rect width="16" height="16" fill="white"/>
</clipPath>
</defs>
</svg>
