<svg width="16" height="16" viewBox="0 0 16 16" fill="none" xmlns="http://www.w3.org/2000/svg">
<g clip-path="url(#clip0_18_2516)">
<path d="M8.00316 15.6298C12.2153 15.6298 15.63 12.2152 15.63 8.00303C15.63 3.79086 12.2153 0.376221 8.00316 0.376221C3.79098 0.376221 0.376343 3.79086 0.376343 8.00303C0.376343 12.2152 3.79098 15.6298 8.00316 15.6298Z" fill="#4CD1C0"/>
<path d="M5.01815 6.6792L7.74242 8.00467L5.01815 9.32713L2.29382 8.00499L5.01815 6.6792Z" fill="white"/>
<path d="M10.9882 6.67908L8.26392 8.00455L10.9882 9.32701L13.7125 8.00486L10.9882 6.67908Z" fill="white"/>
<path d="M10.9882 3.26941L8.26392 4.70333V7.51107L8.28461 7.50079L8.32331 7.48153L10.9874 6.15587L10.9874 6.15581L10.9882 6.15543V3.26941Z" fill="white"/>
<path d="M10.9882 12.7369L8.26392 11.303V8.49524L8.28461 8.50552L8.32331 8.52478L10.9874 9.85044L10.9874 9.8505L10.9882 9.85088V12.7369Z" fill="white"/>
<path d="M5.01819 3.26941L7.74245 4.70333V7.51107L7.72176 7.50079L7.68306 7.48153L5.01894 6.15587L5.019 6.15581L5.01819 6.15543V3.26941Z" fill="white"/>
<path d="M5.01819 12.7369L7.74245 11.303V8.49524L7.72176 8.50552L7.68306 8.52478L5.01894 9.85044L5.019 9.8505L5.01819 9.85088V12.7369Z" fill="white"/>
</g>
<defs>
<clipPath id="clip0_18_2516">
<rect width="16" height="16" fill="white"/>
</clipPath>
</defs>
</svg>
