<svg width="16" height="16" viewBox="0 0 16 16" fill="none" xmlns="http://www.w3.org/2000/svg">
<g clip-path="url(#clip0_18_2506)">
<path d="M8.00316 15.6298C12.2153 15.6298 15.63 12.2152 15.63 8.00303C15.63 3.79086 12.2153 0.376221 8.00316 0.376221C3.79098 0.376221 0.376343 3.79086 0.376343 8.00303C0.376343 12.2152 3.79098 15.6298 8.00316 15.6298Z" fill="#919AA2"/>
<path fill-rule="evenodd" clip-rule="evenodd" d="M12.788 8.02128C12.788 10.6555 10.6555 12.788 8.02128 12.788C5.38701 12.788 3.25452 10.6555 3.25452 8.02128C3.25452 5.38701 5.38701 3.25452 8.02128 3.25452C10.6555 3.25452 12.788 5.38701 12.788 8.02128ZM11.0272 7.99995C11.0272 9.66223 9.67892 11.0105 8.01663 11.0105C6.35435 11.0105 5.01527 9.65301 5.01527 7.99995C5.01527 6.34689 6.36357 4.98937 8.02585 4.98937C9.68814 4.98937 11.0272 6.33767 11.0272 7.99995Z" fill="white"/>
</g>
<defs>
<clipPath id="clip0_18_2506">
<rect width="16" height="16" fill="white"/>
</clipPath>
</defs>
</svg>
