<svg width="16" height="16" viewBox="0 0 16 16" fill="none" xmlns="http://www.w3.org/2000/svg">
<g clip-path="url(#clip0_18_2513)">
<path d="M8.00316 15.6298C12.2153 15.6298 15.63 12.2152 15.63 8.00303C15.63 3.79086 12.2153 0.376221 8.00316 0.376221C3.79098 0.376221 0.376343 3.79086 0.376343 8.00303C0.376343 12.2152 3.79098 15.6298 8.00316 15.6298Z" fill="#B567CE"/>
<path d="M8.05505 3.05774C9.2855 3.07725 10.4672 3.42039 11.496 4.21663C12.1684 4.73702 12.6777 5.38567 12.9457 6.19897C13.3512 7.42942 13.1481 8.57401 12.4108 9.62934C12.1684 9.97631 11.8745 10.2775 11.5407 10.537C11.4429 10.6131 11.4212 10.6832 11.4534 10.8046C11.5764 11.2665 11.5441 11.7217 11.3513 12.1614C11.246 12.4014 11.0964 12.6084 10.8794 12.7613C10.5253 13.0109 10.0985 13.011 9.74575 12.7601C9.497 12.5832 9.34114 12.3374 9.2305 12.0584C9.21174 12.0111 9.21049 11.9266 9.16445 11.9269C9.10016 11.9274 9.10995 12.0148 9.09032 12.064C8.99059 12.314 8.84433 12.5275 8.62411 12.6863C8.21066 12.9843 7.666 12.9534 7.28735 12.6117C7.11192 12.4534 6.98554 12.2629 6.90513 12.0411C6.89265 12.0066 6.88161 11.9714 6.86593 11.9383C6.85427 11.9137 6.8325 11.9114 6.82034 11.9373C6.80033 11.9799 6.78465 12.0246 6.76803 12.0687C6.68517 12.2883 6.56393 12.4828 6.39453 12.6466C5.97662 13.0504 5.39972 13.0494 4.98338 12.6414C4.67994 12.3441 4.53555 11.9717 4.49516 11.5574C4.46901 11.2894 4.47722 11.0202 4.56171 10.7611C4.59163 10.6692 4.56591 10.6179 4.49372 10.5622C4.05235 10.221 3.68462 9.81267 3.39862 9.33293C3.01734 8.69349 2.82786 8.00074 2.85872 7.25656C2.89623 6.35144 3.2326 5.55991 3.81903 4.87463C4.50733 4.0703 5.38347 3.56421 6.39377 3.27795C6.91762 3.1293 7.45388 3.06495 8.05505 3.05774ZM7.99773 9.75278C8.40027 9.75447 8.79478 9.6999 9.1795 9.5813C9.73282 9.41076 10.2219 9.13498 10.6094 8.69637C11.267 7.95213 11.2893 6.97683 10.6662 6.20342C10.466 5.95492 10.2229 5.75529 9.9494 5.59271C9.45215 5.29717 8.91232 5.14163 8.33698 5.0949C7.60716 5.03557 6.91103 5.15342 6.25585 5.48226C5.77591 5.72317 5.3745 6.05647 5.11628 6.53728C4.81993 7.08904 4.80418 7.65227 5.07671 8.21801C5.29648 8.67423 5.65035 9.00502 6.08168 9.25678C6.67307 9.602 7.31696 9.75002 7.99773 9.75278Z" fill="#FEFEFE"/>
</g>
<defs>
<clipPath id="clip0_18_2513">
<rect width="16" height="16" fill="white"/>
</clipPath>
</defs>
</svg>
