<svg width="16" height="16" viewBox="0 0 16 16" fill="none" xmlns="http://www.w3.org/2000/svg">
<g clip-path="url(#clip0_18_2505)">
<path d="M8.00316 15.6298C12.2153 15.6298 15.63 12.2152 15.63 8.00303C15.63 3.79086 12.2153 0.376221 8.00316 0.376221C3.79098 0.376221 0.376343 3.79086 0.376343 8.00303C0.376343 12.2152 3.79098 15.6298 8.00316 15.6298Z" fill="#FF6675"/>
<path d="M11.8232 11.5065C11.7776 11.574 11.7066 11.6121 11.6428 11.657C10.9811 12.1223 10.2462 12.4049 9.45057 12.5396C9.02225 12.6121 8.59136 12.6356 8.15897 12.6143C7.16052 12.5654 6.22498 12.3107 5.39224 11.7374C4.45745 11.0938 3.87334 10.2128 3.61907 9.10933C3.51389 8.65297 3.47958 8.19003 3.50981 7.72433C3.56231 6.91424 3.7679 6.14585 4.20808 5.45693C4.77752 4.56573 5.57595 3.9638 6.58186 3.63715C7.15757 3.45025 7.74802 3.36131 8.35271 3.38953C9.27865 3.43275 10.12 3.7185 10.8526 4.29622C11.428 4.75007 11.816 5.33763 12.0449 6.02843C12.3826 7.04758 12.3197 8.04032 11.8264 9.0017C11.6638 9.31856 11.427 9.57108 11.1685 9.80659C10.6946 10.2384 10.15 10.5419 9.51517 10.6531C8.58314 10.8163 7.74012 10.6181 7.02717 9.97449C6.57483 9.56625 6.31906 9.05075 6.23884 8.44656C6.18779 8.06234 6.21049 7.6825 6.33963 7.31834C6.60613 6.56689 7.15124 6.12101 7.92138 5.95737C8.39994 5.8557 8.8667 5.91039 9.29088 6.17646C9.74184 6.45926 9.9899 6.88087 10.0607 7.39762C10.1477 8.03367 9.68107 8.66031 9.04207 8.80131C8.85316 8.84295 8.66506 8.84672 8.47596 8.80125C8.11155 8.71362 7.81576 8.39695 7.75806 8.02953C7.73598 7.88885 7.75937 7.75105 7.79356 7.61583C7.81532 7.52971 7.87553 7.49609 7.94841 7.51359C8.01822 7.5304 8.06081 7.5913 8.04814 7.67309C8.03804 7.73807 8.03177 7.80236 8.03967 7.86715C8.08326 8.22309 8.38821 8.43696 8.75613 8.37048C8.76528 8.36885 8.77419 8.36609 8.78329 8.36421C9.42397 8.22992 9.4867 7.56816 9.26278 7.19046C9.10366 6.92208 8.85918 6.77224 8.55868 6.71127C7.94923 6.58765 7.44276 6.96912 7.25322 7.41462C7.01526 7.9739 7.11078 8.49134 7.50404 8.94707C8.04224 9.5707 8.9621 9.72092 9.69016 9.3106C10.3095 8.96156 10.6857 8.43339 10.7774 7.72866C10.8688 7.02644 10.687 6.402 10.2072 5.85903C9.7759 5.37087 9.24052 5.09321 8.61243 4.99292C7.05784 4.74467 5.75251 5.54373 5.19272 6.91292C4.96154 7.47841 4.89129 8.06886 4.95727 8.67662C5.058 9.60451 5.43721 10.3984 6.10844 11.046C6.69908 11.6159 7.40293 11.977 8.21171 12.1231C9.42874 12.3431 10.5767 12.1257 11.6679 11.5629C11.7165 11.5378 11.7607 11.4987 11.8215 11.5047L11.8232 11.5065Z" fill="#FEFEFE"/>
</g>
<defs>
<clipPath id="clip0_18_2505">
<rect width="16" height="16" fill="white"/>
</clipPath>
</defs>
</svg>
