<svg width="16" height="16" viewBox="0 0 16 16" fill="none" xmlns="http://www.w3.org/2000/svg">
<g clip-path="url(#clip0_18_2510)">
<path d="M8.00316 15.6298C12.2153 15.6298 15.63 12.2152 15.63 8.00303C15.63 3.79086 12.2153 0.376221 8.00316 0.376221C3.79098 0.376221 0.376343 3.79086 0.376343 8.00303C0.376343 12.2152 3.79098 15.6298 8.00316 15.6298Z" fill="#C8B686"/>
<path fill-rule="evenodd" clip-rule="evenodd" d="M10.8882 7.77988C10.8876 7.77906 10.8873 7.778 10.8875 7.77699L11.5625 3.8409C11.5628 3.83909 11.5644 3.83777 11.5662 3.83777H11.7798C11.7815 3.83777 11.7829 3.83883 11.7834 3.8404L13.3042 8.65552C13.3047 8.65702 13.3041 8.65865 13.3029 8.65966L12.1816 9.53511C12.1799 9.53643 12.1775 9.53605 12.1763 9.53436L10.8882 7.77988ZM2.70178 10.3892C2.70178 10.3909 2.70285 10.3923 2.70435 10.3928L5.01579 11.1486C5.01692 11.149 5.01818 11.1488 5.01912 11.1481L10.1857 7.58124C10.1865 7.58061 10.1871 7.57974 10.1872 7.57867L10.7413 3.8611C10.7417 3.85884 10.7399 3.85677 10.7376 3.85677H6.16132C6.16019 3.85677 6.15912 3.85727 6.15844 3.85815L2.70266 8.027C2.7021 8.02769 2.70178 8.0285 2.70178 8.02944V10.3892ZM5.97899 11.3411L8.50418 12.1683C8.50531 12.1687 8.50657 12.1685 8.50757 12.1678L11.514 10.0113C11.5156 10.0101 11.516 10.0078 11.5149 10.0061L10.3879 8.32906C10.3867 8.3273 10.3844 8.32686 10.3826 8.32805L5.97899 11.3411Z" fill="white"/>
</g>
<defs>
<clipPath id="clip0_18_2510">
<rect width="16" height="16" fill="white"/>
</clipPath>
</defs>
</svg>
