<svg width="16" height="16" viewBox="0 0 16 16" fill="none" xmlns="http://www.w3.org/2000/svg">
<g clip-path="url(#clip0_18_2504)">
<path d="M8.00316 15.6298C12.2153 15.6298 15.63 12.2152 15.63 8.00303C15.63 3.79086 12.2153 0.376221 8.00316 0.376221C3.79098 0.376221 0.376343 3.79086 0.376343 8.00303C0.376343 12.2152 3.79098 15.6298 8.00316 15.6298Z" fill="#5A8EA2"/>
<path fill-rule="evenodd" clip-rule="evenodd" d="M2.78082 8.00213C2.77944 7.99975 2.77944 7.9968 2.78082 7.99442L5.40774 3.50626C5.40912 3.50394 5.41163 3.50256 5.41427 3.50256H10.6209C10.6236 3.50256 10.6261 3.50394 10.6275 3.50639L13.2256 7.99454C13.2269 7.99686 13.2269 7.99987 13.2256 8.0022L10.6275 12.4854C10.6262 12.4877 10.6236 12.4892 10.6209 12.4892H5.41427C5.41151 12.4892 5.40906 12.4878 5.40774 12.4855L2.78082 8.00213ZM10.4234 7.99574C10.4234 9.33193 9.34019 10.4151 8.004 10.4151C6.6678 10.4151 5.58461 9.33193 5.58461 7.99574C5.58461 6.65954 6.6678 5.57635 8.004 5.57635C9.34019 5.57635 10.4234 6.65954 10.4234 7.99574Z" fill="white"/>
</g>
<defs>
<clipPath id="clip0_18_2504">
<rect width="16" height="16" fill="white"/>
</clipPath>
</defs>
</svg>
