<svg width="16" height="16" viewBox="0 0 16 16" fill="none" xmlns="http://www.w3.org/2000/svg">
<g clip-path="url(#clip0_18_2503)">
<path d="M8.00316 15.6298C12.2153 15.6298 15.63 12.2152 15.63 8.00303C15.63 3.79086 12.2153 0.376221 8.00316 0.376221C3.79098 0.376221 0.376343 3.79086 0.376343 8.00303C0.376343 12.2152 3.79098 15.6298 8.00316 15.6298Z" fill="#3692DC"/>
<path d="M8.03643 13.2232C6.20286 13.2021 4.7892 11.9636 4.4374 10.3504C4.27834 9.62106 4.34753 8.90825 4.6139 8.20916C5.02171 7.13896 5.55929 6.13606 6.16749 5.16941C6.69936 4.32413 7.2407 3.4848 7.7774 2.64253C7.83918 2.54556 7.89832 2.44684 7.95809 2.34856C7.98914 2.2975 8.01906 2.29801 8.04979 2.34831C8.05794 2.36167 8.06629 2.37503 8.07438 2.38839C8.6489 3.33666 9.27479 4.25238 9.85765 5.19532C10.3862 6.05032 10.8769 6.92509 11.2532 7.85981C11.4016 8.22854 11.5516 8.5964 11.6089 8.99405C11.7671 10.0903 11.5035 11.0731 10.7917 11.9212C10.1304 12.709 9.27278 13.1304 8.24692 13.2086C8.16357 13.2149 8.08015 13.2202 8.03643 13.2232ZM7.80217 12.0724C8.17762 12.0742 8.53242 11.9938 8.85537 11.8054C9.48716 11.4366 9.85006 10.8958 9.88041 10.1523C9.88267 10.0972 9.90444 10.0031 9.86135 9.99375C9.7921 9.97876 9.7874 10.075 9.75886 10.1243C9.39496 10.7528 8.85111 11.1024 8.12713 11.1311C7.00104 11.1756 6.11223 10.2555 6.13732 9.18058C6.13832 9.13874 6.14045 9.09691 6.13958 9.0552C6.13926 9.04134 6.13506 9.02121 6.12553 9.01518C6.10182 9.00019 6.08852 9.02284 6.07629 9.03852C6.06023 9.05909 6.04506 9.08054 6.03163 9.10293C5.65086 9.73917 5.61523 10.3926 5.98522 11.038C6.38318 11.7324 7.01359 12.0497 7.80217 12.0724Z" fill="#FEFEFE"/>
</g>
<defs>
<clipPath id="clip0_18_2503">
<rect width="16" height="16" fill="white"/>
</clipPath>
</defs>
</svg>
