<svg width="40" height="40" viewBox="0 0 40 40" fill="none" xmlns="http://www.w3.org/2000/svg">
<mask id="mask0_74_94787" style="mask-type:alpha" maskUnits="userSpaceOnUse" x="0" y="0" width="40" height="40">
<rect width="40" height="40" fill="#D9D9D9"/>
</mask>
<g mask="url(#mask0_74_94787)">
<path d="M13 28.833C13.5 28.833 13.9237 28.6593 14.271 28.312C14.6183 27.9653 14.792 27.528 14.792 27C14.792 26.5 14.6183 26.0763 14.271 25.729C13.9237 25.3817 13.486 25.208 12.958 25.208C12.458 25.208 12.0347 25.3817 11.688 25.729C11.3407 26.0763 11.167 26.514 11.167 27.042C11.167 27.542 11.3407 27.9653 11.688 28.312C12.0347 28.6593 12.472 28.833 13 28.833ZM13 14.792C13.5 14.792 13.9237 14.6183 14.271 14.271C14.6183 13.9237 14.792 13.486 14.792 12.958C14.792 12.458 14.6183 12.0347 14.271 11.688C13.9237 11.3407 13.486 11.167 12.958 11.167C12.458 11.167 12.0347 11.3407 11.688 11.688C11.3407 12.0347 11.167 12.472 11.167 13C11.167 13.5 11.3407 13.9237 11.688 14.271C12.0347 14.6183 12.472 14.792 13 14.792ZM20 21.833C20.5 21.833 20.9307 21.6527 21.292 21.292C21.6527 20.9307 21.833 20.5 21.833 20C21.833 19.5 21.6527 19.0693 21.292 18.708C20.9307 18.3473 20.5 18.167 20 18.167C19.5 18.167 19.0693 18.3473 18.708 18.708C18.3473 19.0693 18.167 19.5 18.167 20C18.167 20.5 18.3473 20.9307 18.708 21.292C19.0693 21.6527 19.5 21.833 20 21.833ZM27.042 28.833C27.542 28.833 27.9653 28.6593 28.312 28.312C28.6593 27.9653 28.833 27.528 28.833 27C28.833 26.5 28.6593 26.0763 28.312 25.729C27.9653 25.3817 27.528 25.208 27 25.208C26.5 25.208 26.0763 25.3817 25.729 25.729C25.3817 26.0763 25.208 26.514 25.208 27.042C25.208 27.542 25.3817 27.9653 25.729 28.312C26.0763 28.6593 26.514 28.833 27.042 28.833ZM27.042 14.792C27.542 14.792 27.9653 14.6183 28.312 14.271C28.6593 13.9237 28.833 13.486 28.833 12.958C28.833 12.458 28.6593 12.0347 28.312 11.688C27.9653 11.3407 27.528 11.167 27 11.167C26.5 11.167 26.0763 11.3407 25.729 11.688C25.3817 12.0347 25.208 12.472 25.208 13C25.208 13.5 25.3817 13.9237 25.729 14.271C26.0763 14.6183 26.514 14.792 27.042 14.792ZM8.45801 34.167C7.73601 34.167 7.11801 33.91 6.60401 33.396C6.09001 32.882 5.83301 32.264 5.83301 31.542V8.45801C5.83301 7.73601 6.09001 7.11801 6.60401 6.60401C7.11801 6.09001 7.73601 5.83301 8.45801 5.83301H31.542C32.264 5.83301 32.882 6.09001 33.396 6.60401C33.91 7.11801 34.167 7.73601 34.167 8.45801V31.542C34.167 32.264 33.91 32.882 33.396 33.396C32.882 33.91 32.264 34.167 31.542 34.167H8.45801ZM8.45801 32.083H31.542C31.6807 32.083 31.8057 32.0277 31.917 31.917C32.0277 31.8057 32.083 31.6807 32.083 31.542V8.45801C32.083 8.31934 32.0277 8.19434 31.917 8.08301C31.8057 7.97234 31.6807 7.91701 31.542 7.91701H8.45801C8.31934 7.91701 8.19434 7.97234 8.08301 8.08301C7.97234 8.19434 7.91701 8.31934 7.91701 8.45801V31.542C7.91701 31.6807 7.97234 31.8057 8.08301 31.917C8.19434 32.0277 8.31934 32.083 8.45801 32.083Z" fill="#1C1B1F"/>
</g>
</svg>
