<svg width="24" height="24" viewBox="0 0 24 24" fill="none" xmlns="http://www.w3.org/2000/svg">
<mask id="mask0_74_94820" style="mask-type:alpha" maskUnits="userSpaceOnUse" x="0" y="0" width="24" height="24">
<rect width="24" height="24" fill="#D9D9D9"/>
</mask>
<g mask="url(#mask0_74_94820)">
<path d="M12.05 19.75C9.88331 19.75 8.04164 18.996 6.52498 17.488C5.00831 15.9793 4.24998 14.15 4.24998 12V11.225L2.39998 13.075L1.34998 12.025L4.99998 8.35L8.64998 12.025L7.59998 13.075L5.74998 11.225V12C5.74998 13.7333 6.36264 15.2083 7.58798 16.425C8.81264 17.6417 10.3 18.25 12.05 18.25C12.4666 18.25 12.8793 18.2043 13.288 18.113C13.696 18.021 14.1 17.8833 14.5 17.7L15.625 18.825C15.0583 19.125 14.475 19.354 13.875 19.512C13.275 19.6707 12.6666 19.75 12.05 19.75ZM19 15.65L15.35 11.975L16.4 10.925L18.25 12.775V12C18.25 10.2667 17.6376 8.79167 16.413 7.575C15.1876 6.35833 13.7 5.75 11.95 5.75C11.5333 5.75 11.121 5.79567 10.713 5.887C10.3043 5.979 9.89997 6.11667 9.49998 6.3L8.37498 5.175C8.94164 4.875 9.52497 4.64567 10.125 4.487C10.725 4.329 11.3333 4.25 11.95 4.25C14.1166 4.25 15.9583 5.004 17.475 6.512C18.9916 8.02067 19.75 9.85 19.75 12V12.775L21.6 10.925L22.65 11.975L19 15.65Z" fill="#283141"/>
</g>
</svg>
